<svg id="Layer_1" data-name="Layer 1" xmlns="http://www.w3.org/2000/svg" viewBox="0 0 841.9 228"><defs><style>.cls-1{fill:#2630ea;}</style></defs><g id="_1.1" data-name=" 1.1"><path class="cls-1" d="M260.5,118.8c-1.4,3.1-2.2,4.8-2.9,6.5q-12,30.45-23.7,61c-2.3,6.1-5.8,8.8-12,9-8.5.4-17.1,1.5-25.6,2.2-7.2.6-7.9-.2-5.2-7.1,9.9-25.4,19.8-50.7,29.7-76.1,7.9-20.1,15.8-40.3,23.4-60.5,2.3-6,5.7-8.9,12-9.3,8.5-.5,17.1-1.4,25.6-2.7,5.8-.9,8.5,1.3,10.2,6.5,6.4,18.9,13,37.8,19.6,56.7.6,1.8,1.4,3.6,2.8,6.9,3.7-9.4,7.4-18.9,11.1-28.4,5.3-13.7,10.7-27.3,15.8-41,1.9-5,4.9-7.4,9.9-7.8,9.1-.8,18.2-1.9,27.3-2.8,7-.7,7.7.3,5,7.3q-23.85,62.25-47.9,124.3c-2.1,5.3-4.2,10.6-6.2,16-1.5,4-4.1,6.1-8.3,6.5-10.2.9-20.5,1.8-30.7,2.9-4.7.5-6-2.4-7.2-6q-9.6-28.35-19.5-56.7C262.9,124.2,261.9,122.1,260.5,118.8Z"/><path class="cls-1" d="M443.4,101.4a19.53,19.53,0,0,0-3.4-.3c-8.9.3-9.1.1-5.6-9,2.1-5.6,4.5-11.1,6.4-16.8,1.8-5.3,4.9-8.2,10.2-8,4.5.2,7-1.8,8.4-6.4,2-6.2,4.9-12.3,7-18.5,1.6-4.6,4.3-6.9,8.9-7.3,8.5-.7,17.1-1.8,25.6-2.6,5.6-.5,6.5.7,4.5,6.2-2.7,7.5-5.6,14.9-9,23.9l17.2-1.7c2.5-.2,4.9-.5,7.4-.7,3.4-.3,4.4,1.6,3.3,4.7-3.1,8.3-6,16.6-9.8,24.6-1,2.2-4.8,4.2-7.4,4.6-6.4,1.2-12.9,1.3-19.3,2.2-1.8.3-4.7,1.4-5.2,2.8-5.4,13.5-10.5,27-15.6,40.6l20.2-1.9c12.9-1.2,12.9-1.2,7.9,11.5-2,5.2-4.1,10.4-5.9,15.7-1.4,4-3.9,5.9-7.8,6.2-12.5,1.1-25,2.4-37.6,3.3-15.8,2.6-22.5-12-18.1-25,4.8-14.1,10.3-28,15.6-41.9A64,64,0,0,0,443.4,101.4Z"/><path class="cls-1" d="M557.6,141.3c-6.2,7.1-11.4,12.7-16.2,18.6-3.8,4.7-8.1,7.1-14,7.4-10.6.6-21.3,1.8-31.9,2.8-2,.2-4,.1-7.6.2,2.4-2.9,3.6-4.6,5-6,16-15.6,31.9-31.2,48.1-46.5,4.8-4.5,6.1-8.2,3.8-14.2C540.2,91,536,78.4,531.6,65.7c-1.7-4.7,0-6.4,4.5-6.9l35.8-3.6c3.8-.4,5.8,1.2,6.9,4.8q15.15,46.8,30.4,93.6c1.4,4.2-.2,6-4.1,6.4l-38.7,3.6c-3.7.4-5.5-1.4-6.1-5C559.7,153.4,558.8,148.4,557.6,141.3Z"/><path class="cls-1" d="M371.4,181.5c-4.5.4-9.1.8-13.6,1.3-4.9.5-6.1-1.4-4.2-6.1q9.9-25.5,19.7-51c5.9-15.2,11.8-30.4,17.5-45.6,1.8-4.9,4.6-7.4,9.8-7.8,8.1-.5,16.3-1.6,24.5-2.4,6.8-.7,7.5.2,4.9,6.9q-15.6,41-31.5,81.8c-1.9,5-4,10-5.8,15-1.5,4.3-4.3,6.4-8.7,6.6C379.8,180.6,375.6,181.1,371.4,181.5Z"/><path class="cls-1" d="M652.3,48.1c-2,2.4-3.2,4-4.6,5.4C634.4,67,621,80.6,607.5,94c-4.7,4.7-6.2,4.5-8.3-1.4S595,80.8,592.9,75a10.46,10.46,0,0,1-.8-3.9c.3-4.7,13.4-19.2,18.1-19.7q19.35-2.1,38.7-3.9A20.21,20.21,0,0,1,652.3,48.1Z"/><path class="cls-1" d="M417.7,60.3c-4.5.5-9.1.8-13.6,1.4-4.2.6-5.8-1.1-4.3-5.2,2.7-7.5,5.5-15,8.9-22.2a10.61,10.61,0,0,1,6.7-4.8c9.2-1.4,18.6-2.2,27.9-3.1,4.3-.5,5.4,1.6,3.9,5.5-2.8,7.3-5.3,14.7-8.6,21.7-1.1,2.3-4.5,4.4-7.1,5.1C426.9,59.9,422.3,59.8,417.7,60.3Z"/><path class="cls-1" d="M260.5,118.8c-1.4,3.1-2.2,4.8-2.9,6.5q-12,30.45-23.7,61c-2.3,6.1-5.8,8.8-12,9-8.5.4-17.1,1.5-25.6,2.2-7.2.6-7.9-.2-5.2-7.1,9.9-25.4,19.8-50.7,29.7-76.1,7.9-20.1,15.8-40.3,23.4-60.5,2.3-6,5.7-8.9,12-9.3,8.5-.5,17.1-1.4,25.6-2.7,5.8-.9,8.5,1.3,10.2,6.5,6.4,18.9,13,37.8,19.6,56.7.6,1.8,1.4,3.6,2.8,6.9,3.7-9.4,7.4-18.9,11.1-28.4,5.3-13.7,10.7-27.3,15.8-41,1.9-5,4.9-7.4,9.9-7.8,9.1-.8,18.2-1.9,27.3-2.8,7-.7,7.7.3,5,7.3q-23.85,62.25-47.9,124.3c-2.1,5.3-4.2,10.6-6.2,16-1.5,4-4.1,6.1-8.3,6.5-10.2.9-20.5,1.8-30.7,2.9-4.7.5-6-2.4-7.2-6q-9.6-28.35-19.5-56.7C262.9,124.2,261.9,122.1,260.5,118.8Z"/><path class="cls-1" d="M443.4,101.4a19.53,19.53,0,0,0-3.4-.3c-8.9.3-9.1.1-5.6-9,2.1-5.6,4.5-11.1,6.4-16.8,1.8-5.3,4.9-8.2,10.2-8,4.5.2,7-1.8,8.4-6.4,2-6.2,4.9-12.3,7-18.5,1.6-4.6,4.3-6.9,8.9-7.3,8.5-.7,17.1-1.8,25.6-2.6,5.6-.5,6.5.7,4.5,6.2-2.7,7.5-5.6,14.9-9,23.9l17.2-1.7c2.5-.2,4.9-.5,7.4-.7,3.4-.3,4.4,1.6,3.3,4.7-3.1,8.3-6,16.6-9.8,24.6-1,2.2-4.8,4.2-7.4,4.6-6.4,1.2-12.9,1.3-19.3,2.2-1.8.3-4.7,1.4-5.2,2.8-5.4,13.5-10.5,27-15.6,40.6l20.2-1.9c12.9-1.2,12.9-1.2,7.9,11.5-2,5.2-4.1,10.4-5.9,15.7-1.4,4-3.9,5.9-7.8,6.2-12.5,1.1-25,2.4-37.6,3.3-15.8,2.6-22.5-12-18.1-25,4.8-14.1,10.3-28,15.6-41.9A64,64,0,0,0,443.4,101.4Z"/><path class="cls-1" d="M557.6,141.3c-6.2,7.1-11.4,12.7-16.2,18.6-3.8,4.7-8.1,7.1-14,7.4-10.6.6-21.3,1.8-31.9,2.8-2,.2-4,.1-7.6.2,2.4-2.9,3.6-4.6,5-6,16-15.6,31.9-31.2,48.1-46.5,4.8-4.5,6.1-8.2,3.8-14.2C540.2,91,536,78.4,531.6,65.7c-1.7-4.7,0-6.4,4.5-6.9l35.8-3.6c3.8-.4,5.8,1.2,6.9,4.8q15.15,46.8,30.4,93.6c1.4,4.2-.2,6-4.1,6.4l-38.7,3.6c-3.7.4-5.5-1.4-6.1-5C559.7,153.4,558.8,148.4,557.6,141.3Z"/><path class="cls-1" d="M371.4,181.5c-4.5.4-9.1.8-13.6,1.3-4.9.5-6.1-1.4-4.2-6.1q9.9-25.5,19.7-51c5.9-15.2,11.8-30.4,17.5-45.6,1.8-4.9,4.6-7.4,9.8-7.8,8.1-.5,16.3-1.6,24.5-2.4,6.8-.7,7.5.2,4.9,6.9q-15.6,41-31.5,81.8c-1.9,5-4,10-5.8,15-1.5,4.3-4.3,6.4-8.7,6.6C379.8,180.6,375.6,181.1,371.4,181.5Z"/><path class="cls-1" d="M652.3,48.1c-2,2.4-3.2,4-4.6,5.4C634.4,67,621,80.6,607.5,94c-4.7,4.7-6.2,4.5-8.3-1.4S595,80.8,592.9,75a10.46,10.46,0,0,1-.8-3.9c.3-4.7,13.4-19.2,18.1-19.7q19.35-2.1,38.7-3.9A20.21,20.21,0,0,1,652.3,48.1Z"/><path class="cls-1" d="M417.7,60.3c-4.5.5-9.1.8-13.6,1.4-4.2.6-5.8-1.1-4.3-5.2,2.7-7.5,5.5-15,8.9-22.2a10.61,10.61,0,0,1,6.7-4.8c9.2-1.4,18.6-2.2,27.9-3.1,4.3-.5,5.4,1.6,3.9,5.5-2.8,7.3-5.3,14.7-8.6,21.7-1.1,2.3-4.5,4.4-7.1,5.1C426.9,59.9,422.3,59.8,417.7,60.3Z"/></g></svg>