<?xml version="1.0" encoding="utf-8"?>
<!-- Generator: Adobe Illustrator 26.0.2, SVG Export Plug-In . SVG Version: 6.00 Build 0)  -->
<svg version="1.1" id="Layer_1" xmlns="http://www.w3.org/2000/svg" xmlns:xlink="http://www.w3.org/1999/xlink" x="0px" y="0px"
	 viewBox="0 0 841.9 228" style="enable-background:new 0 0 841.9 228;" xml:space="preserve">
<style type="text/css">
	.st0{fill:#FFFFFF;}
	.st1{fill:#F0F3FA;}
</style>
<g>
	<g id="_1.1">
		<path class="st0" d="M260.5,118.8c-1.4,3.1-2.2,4.8-2.9,6.5c-8,20.3-15.9,40.6-23.7,61c-2.3,6.1-5.8,8.8-12,9
			c-8.5,0.4-17.1,1.5-25.6,2.2c-7.2,0.6-7.9-0.2-5.2-7.1c9.9-25.4,19.8-50.7,29.7-76.1c7.9-20.1,15.8-40.3,23.4-60.5
			c2.3-6,5.7-8.9,12-9.3c8.5-0.5,17.1-1.4,25.6-2.7c5.8-0.9,8.5,1.3,10.2,6.5c6.4,18.9,13,37.8,19.6,56.7c0.6,1.8,1.4,3.6,2.8,6.9
			c3.7-9.4,7.4-18.9,11.1-28.4c5.3-13.7,10.7-27.3,15.8-41c1.9-5,4.9-7.4,9.9-7.8c9.1-0.8,18.2-1.9,27.3-2.8c7-0.7,7.7,0.3,5,7.3
			c-15.9,41.5-31.9,82.9-47.9,124.3c-2.1,5.3-4.2,10.6-6.2,16c-1.5,4-4.1,6.1-8.3,6.5c-10.2,0.9-20.5,1.8-30.7,2.9
			c-4.7,0.5-6-2.4-7.2-6c-6.4-18.9-12.9-37.8-19.5-56.7C262.9,124.2,261.9,122.1,260.5,118.8z"/>
		<path class="st0" d="M443.4,101.4c-1.1-0.2-2.3-0.3-3.4-0.3c-8.9,0.3-9.1,0.1-5.6-9c2.1-5.6,4.5-11.1,6.4-16.8
			c1.8-5.3,4.9-8.2,10.2-8c4.5,0.2,7-1.8,8.4-6.4c2-6.2,4.9-12.3,7-18.5c1.6-4.6,4.3-6.9,8.9-7.3c8.5-0.7,17.1-1.8,25.6-2.6
			c5.6-0.5,6.5,0.7,4.5,6.2c-2.7,7.5-5.6,14.9-9,23.9l17.2-1.7c2.5-0.2,4.9-0.5,7.4-0.7c3.4-0.3,4.4,1.6,3.3,4.7
			c-3.1,8.3-6,16.6-9.8,24.6c-1,2.2-4.8,4.2-7.4,4.6c-6.4,1.2-12.9,1.3-19.3,2.2c-1.8,0.3-4.7,1.4-5.2,2.8
			c-5.4,13.5-10.5,27-15.6,40.6l20.2-1.9c12.9-1.2,12.9-1.2,7.9,11.5c-2,5.2-4.1,10.4-5.9,15.7c-1.4,4-3.9,5.9-7.8,6.2
			c-12.5,1.1-25,2.4-37.6,3.3c-15.8,2.6-22.5-12-18.1-25c4.8-14.1,10.3-28,15.6-41.9C442.1,105.7,442.7,103.7,443.4,101.4z"/>
		<path class="st0" d="M557.6,141.3c-6.2,7.1-11.4,12.7-16.2,18.6c-3.8,4.7-8.1,7.1-14,7.4c-10.6,0.6-21.3,1.8-31.9,2.8
			c-2,0.2-4,0.1-7.6,0.2c2.4-2.9,3.6-4.6,5-6c16-15.6,31.9-31.2,48.1-46.5c4.8-4.5,6.1-8.2,3.8-14.2c-4.6-12.6-8.8-25.2-13.2-37.9
			c-1.7-4.7,0-6.4,4.5-6.9c12-1.2,23.9-2.4,35.8-3.6c3.8-0.4,5.8,1.2,6.9,4.8c10.1,31.2,20.2,62.4,30.4,93.6c1.4,4.2-0.2,6-4.1,6.4
			c-12.9,1.2-25.8,2.4-38.7,3.6c-3.7,0.4-5.5-1.4-6.1-5C559.7,153.4,558.8,148.4,557.6,141.3z"/>
		<path class="st0" d="M371.4,181.5c-4.5,0.4-9.1,0.8-13.6,1.3c-4.9,0.5-6.1-1.4-4.2-6.1c6.6-17,13.2-34,19.7-51
			c5.9-15.2,11.8-30.4,17.5-45.6c1.8-4.9,4.6-7.4,9.8-7.8c8.1-0.5,16.3-1.6,24.5-2.4c6.8-0.7,7.5,0.2,4.9,6.9
			c-10.4,27.3-20.9,54.6-31.5,81.8c-1.9,5-4,10-5.8,15c-1.5,4.3-4.3,6.4-8.7,6.6C379.8,180.6,375.6,181.1,371.4,181.5z"/>
		<path class="st0" d="M652.3,48.1c-2,2.4-3.2,4-4.6,5.4c-13.3,13.5-26.7,27.1-40.2,40.5c-4.7,4.7-6.2,4.5-8.3-1.4
			s-4.2-11.8-6.3-17.6c-0.5-1.2-0.8-2.6-0.8-3.9c0.3-4.7,13.4-19.2,18.1-19.7c12.9-1.4,25.8-2.7,38.7-3.9
			C650,47.6,651.2,47.8,652.3,48.1z"/>
		<path class="st0" d="M417.7,60.3c-4.5,0.5-9.1,0.8-13.6,1.4c-4.2,0.6-5.8-1.1-4.3-5.2c2.7-7.5,5.5-15,8.9-22.2
			c1.5-2.4,3.9-4.2,6.7-4.8c9.2-1.4,18.6-2.2,27.9-3.1c4.3-0.5,5.4,1.6,3.9,5.5c-2.8,7.3-5.3,14.7-8.6,21.7
			c-1.1,2.3-4.5,4.4-7.1,5.1C426.9,59.9,422.3,59.8,417.7,60.3z"/>
		<path class="st1" d="M260.5,118.8c-1.4,3.1-2.2,4.8-2.9,6.5c-8,20.3-15.9,40.6-23.7,61c-2.3,6.1-5.8,8.8-12,9
			c-8.5,0.4-17.1,1.5-25.6,2.2c-7.2,0.6-7.9-0.2-5.2-7.1c9.9-25.4,19.8-50.7,29.7-76.1c7.9-20.1,15.8-40.3,23.4-60.5
			c2.3-6,5.7-8.9,12-9.3c8.5-0.5,17.1-1.4,25.6-2.7c5.8-0.9,8.5,1.3,10.2,6.5c6.4,18.9,13,37.8,19.6,56.7c0.6,1.8,1.4,3.6,2.8,6.9
			c3.7-9.4,7.4-18.9,11.1-28.4c5.3-13.7,10.7-27.3,15.8-41c1.9-5,4.9-7.4,9.9-7.8c9.1-0.8,18.2-1.9,27.3-2.8c7-0.7,7.7,0.3,5,7.3
			c-15.9,41.5-31.9,82.9-47.9,124.3c-2.1,5.3-4.2,10.6-6.2,16c-1.5,4-4.1,6.1-8.3,6.5c-10.2,0.9-20.5,1.8-30.7,2.9
			c-4.7,0.5-6-2.4-7.2-6c-6.4-18.9-12.9-37.8-19.5-56.7C262.9,124.2,261.9,122.1,260.5,118.8z"/>
		<path class="st1" d="M443.4,101.4c-1.1-0.2-2.3-0.3-3.4-0.3c-8.9,0.3-9.1,0.1-5.6-9c2.1-5.6,4.5-11.1,6.4-16.8
			c1.8-5.3,4.9-8.2,10.2-8c4.5,0.2,7-1.8,8.4-6.4c2-6.2,4.9-12.3,7-18.5c1.6-4.6,4.3-6.9,8.9-7.3c8.5-0.7,17.1-1.8,25.6-2.6
			c5.6-0.5,6.5,0.7,4.5,6.2c-2.7,7.5-5.6,14.9-9,23.9l17.2-1.7c2.5-0.2,4.9-0.5,7.4-0.7c3.4-0.3,4.4,1.6,3.3,4.7
			c-3.1,8.3-6,16.6-9.8,24.6c-1,2.2-4.8,4.2-7.4,4.6c-6.4,1.2-12.9,1.3-19.3,2.2c-1.8,0.3-4.7,1.4-5.2,2.8
			c-5.4,13.5-10.5,27-15.6,40.6l20.2-1.9c12.9-1.2,12.9-1.2,7.9,11.5c-2,5.2-4.1,10.4-5.9,15.7c-1.4,4-3.9,5.9-7.8,6.2
			c-12.5,1.1-25,2.4-37.6,3.3c-15.8,2.6-22.5-12-18.1-25c4.8-14.1,10.3-28,15.6-41.9C442.1,105.7,442.7,103.7,443.4,101.4z"/>
		<path class="st1" d="M557.6,141.3c-6.2,7.1-11.4,12.7-16.2,18.6c-3.8,4.7-8.1,7.1-14,7.4c-10.6,0.6-21.3,1.8-31.9,2.8
			c-2,0.2-4,0.1-7.6,0.2c2.4-2.9,3.6-4.6,5-6c16-15.6,31.9-31.2,48.1-46.5c4.8-4.5,6.1-8.2,3.8-14.2c-4.6-12.6-8.8-25.2-13.2-37.9
			c-1.7-4.7,0-6.4,4.5-6.9c12-1.2,23.9-2.4,35.8-3.6c3.8-0.4,5.8,1.2,6.9,4.8c10.1,31.2,20.2,62.4,30.4,93.6c1.4,4.2-0.2,6-4.1,6.4
			c-12.9,1.2-25.8,2.4-38.7,3.6c-3.7,0.4-5.5-1.4-6.1-5C559.7,153.4,558.8,148.4,557.6,141.3z"/>
		<path class="st1" d="M371.4,181.5c-4.5,0.4-9.1,0.8-13.6,1.3c-4.9,0.5-6.1-1.4-4.2-6.1c6.6-17,13.2-34,19.7-51
			c5.9-15.2,11.8-30.4,17.5-45.6c1.8-4.9,4.6-7.4,9.8-7.8c8.1-0.5,16.3-1.6,24.5-2.4c6.8-0.7,7.5,0.2,4.9,6.9
			c-10.4,27.3-20.9,54.6-31.5,81.8c-1.9,5-4,10-5.8,15c-1.5,4.3-4.3,6.4-8.7,6.6C379.8,180.6,375.6,181.1,371.4,181.5z"/>
		<path class="st1" d="M652.3,48.1c-2,2.4-3.2,4-4.6,5.4c-13.3,13.5-26.7,27.1-40.2,40.5c-4.7,4.7-6.2,4.5-8.3-1.4
			s-4.2-11.8-6.3-17.6c-0.5-1.2-0.8-2.6-0.8-3.9c0.3-4.7,13.4-19.2,18.1-19.7c12.9-1.4,25.8-2.7,38.7-3.9
			C650,47.6,651.2,47.8,652.3,48.1z"/>
		<path class="st1" d="M417.7,60.3c-4.5,0.5-9.1,0.8-13.6,1.4c-4.2,0.6-5.8-1.1-4.3-5.2c2.7-7.5,5.5-15,8.9-22.2
			c1.5-2.4,3.9-4.2,6.7-4.8c9.2-1.4,18.6-2.2,27.9-3.1c4.3-0.5,5.4,1.6,3.9,5.5c-2.8,7.3-5.3,14.7-8.6,21.7
			c-1.1,2.3-4.5,4.4-7.1,5.1C426.9,59.9,422.3,59.8,417.7,60.3z"/>
	</g>
</g>
</svg>
